<svg version="1.1" preserveAspectRatio="none" xmlns="http://www.w3.org/2000/svg" width="500" height="500" viewBox="0 0 500 500"><rect width="100%" height="100%" fill="#FFFFFF" fill-opacity="1"/><svg viewBox="721.9199 618.2827 523.9123 142.4" width="333" height="90.50980478984746" x="83.5px" y="204.7451px" xmlns="http://www.w3.org/2000/svg" xmlns:xlink="http://www.w3.org/1999/xlink" preserveAspectRatio="none"><defs></defs><style>.background {fill:#FFFFFF;fill-opacity:1;}.icon1 {fill:#0000FF;fill-opacity:1;}.icon1-str {stroke:#0000FF;stroke-opacity:1;}.icon2 {fill:#A9FF94;fill-opacity:1;}.icon3 {fill:#7AE061;fill-opacity:0.95;}.icon3-str {stroke:#7AE061;stroke-opacity:0.95;}.icon4 {fill:#64CC4B;fill-opacity:1;}.icon5 {fill:#9B9BFF;fill-opacity:1;}.icon6 {fill:#E6FFDF;fill-opacity:0.95;}.icon7 {fill:#C6C6FF;fill-opacity:1;}.icon8 {fill:#EFAFAA;fill-opacity:1;}</style><g opacity="1" transform="rotate(0 817.9197 618.2827)">
<svg width="427.9125" height="100" x="817.9197" y="618.2827" version="1.1" preserveAspectRatio="none" viewBox="0 0 427.9125 100">
  <defs><rect x="0" y="0" width="427.9125" height="100" rx="0px" ry="0px" id="id-B7crM0kCi1740680108192"></rect></defs><use class="icon1 icon3-str" style="stroke-width:0;" xlink:href="#id-B7crM0kCi1740680108192"></use>
</svg>
</g><g opacity="1" transform="rotate(0 805.2787 742.2827)">
<svg width="357.1947" height="18.4" x="805.2787" y="742.2827" version="1.1" preserveAspectRatio="none" viewBox="-0.04 -30.28 592.48 30.520000000000003">
  <g transform="matrix(1 0 0 1 0 0)" class="icon1"><path id="id-6izo4zJp29" d="M24.52-28L28.52-28L16.24 0L12.28 0L-0.04-28L4.28-28L14.36-5L24.52-28Z M41 0.24Q37.84 0.24 35.32-1.16Q32.80-2.56 31.38-5.02Q29.96-7.48 29.96-10.60L29.96-10.60Q29.96-13.72 31.38-16.18Q32.80-18.64 35.32-20.02Q37.84-21.40 41-21.40L41-21.40Q44.16-21.40 46.66-20.02Q49.16-18.64 50.58-16.18Q52-13.72 52-10.60L52-10.60Q52-7.48 50.58-5.02Q49.16-2.56 46.66-1.16Q44.16 0.24 41 0.24L41 0.24ZM41-3.12Q43.04-3.12 44.66-4.06Q46.28-5 47.20-6.70Q48.12-8.40 48.12-10.60L48.12-10.60Q48.12-12.80 47.20-14.50Q46.28-16.20 44.66-17.12Q43.04-18.04 41-18.04L41-18.04Q38.96-18.04 37.34-17.12Q35.72-16.20 34.78-14.50Q33.84-12.80 33.84-10.60L33.84-10.60Q33.84-8.40 34.78-6.70Q35.72-5 37.34-4.06Q38.96-3.12 41-3.12L41-3.12Z M70.04-4L71.24-1.24Q70.40-0.52 69.16-0.14Q67.92 0.24 66.60 0.24L66.60 0.24Q63.40 0.24 61.64-1.48Q59.88-3.20 59.88-6.40L59.88-6.40L59.88-18.04L56.28-18.04L56.28-21.20L59.88-21.20L59.88-25.84L63.72-25.84L63.72-21.20L69.80-21.20L69.80-18.04L63.72-18.04L63.72-6.56Q63.72-4.84 64.58-3.92Q65.44-3 67.04-3L67.04-3Q68.80-3 70.04-4L70.04-4Z M81.56-17.64Q82.56-19.48 84.52-20.44Q86.48-21.40 89.28-21.40L89.28-21.40L89.28-17.68Q88.96-17.72 88.40-17.72L88.40-17.72Q85.28-17.72 83.50-15.86Q81.72-14 81.72-10.56L81.72-10.56L81.72 0L77.88 0L77.88-21.20L81.56-21.20L81.56-17.64Z M114.96-10.48Q114.96-10.04 114.88-9.32L114.88-9.32L97.68-9.32Q98.04-6.52 100.14-4.82Q102.24-3.12 105.36-3.12L105.36-3.12Q109.16-3.12 111.48-5.68L111.48-5.68L113.60-3.20Q112.16-1.52 110.02-0.64Q107.88 0.24 105.24 0.24L105.24 0.24Q101.88 0.24 99.28-1.14Q96.68-2.52 95.26-5Q93.84-7.48 93.84-10.60L93.84-10.60Q93.84-13.68 95.22-16.16Q96.60-18.64 99.02-20.02Q101.44-21.40 104.48-21.40L104.48-21.40Q107.52-21.40 109.90-20.02Q112.28-18.64 113.62-16.16Q114.96-13.68 114.96-10.48L114.96-10.48ZM104.48-18.16Q101.72-18.16 99.86-16.48Q98.00-14.80 97.68-12.08L97.68-12.08L111.28-12.08Q110.96-14.76 109.10-16.46Q107.24-18.16 104.48-18.16L104.48-18.16Z M150.04-21.20L153.80-21.20L144.52 0L140.60 0L131.32-21.20L135.32-21.20L142.60-4.20L150.04-21.20Z M167.88 0.24Q164.72 0.24 162.20-1.16Q159.68-2.56 158.26-5.02Q156.84-7.48 156.84-10.60L156.84-10.60Q156.84-13.72 158.26-16.18Q159.68-18.64 162.20-20.02Q164.72-21.40 167.88-21.40L167.88-21.40Q171.04-21.40 173.54-20.02Q176.04-18.64 177.46-16.18Q178.88-13.72 178.88-10.60L178.88-10.60Q178.88-7.48 177.46-5.02Q176.04-2.56 173.54-1.16Q171.04 0.24 167.88 0.24L167.88 0.24ZM167.88-3.12Q169.92-3.12 171.54-4.06Q173.16-5 174.08-6.70Q175-8.40 175-10.60L175-10.60Q175-12.80 174.08-14.50Q173.16-16.20 171.54-17.12Q169.92-18.04 167.88-18.04L167.88-18.04Q165.84-18.04 164.22-17.12Q162.60-16.20 161.66-14.50Q160.72-12.80 160.72-10.60L160.72-10.60Q160.72-8.40 161.66-6.70Q162.60-5 164.22-4.06Q165.84-3.12 167.88-3.12L167.88-3.12Z M186.20 0L186.20-21.20L190.04-21.20L190.04 0L186.20 0ZM188.12-25.28Q187-25.28 186.26-26Q185.52-26.72 185.52-27.76L185.52-27.76Q185.52-28.80 186.26-29.54Q187-30.28 188.12-30.28L188.12-30.28Q189.24-30.28 189.98-29.58Q190.72-28.88 190.72-27.84L190.72-27.84Q190.72-26.76 189.98-26.02Q189.24-25.28 188.12-25.28L188.12-25.28Z M217.24 0L212.88 0L206.76-8.12L200.56 0L196.28 0L204.64-10.84L196.68-21.20L200.96-21.20L206.80-13.56L212.60-21.20L216.80-21.20L208.80-10.84L217.24 0Z M243.96-26.76Q240.52-26.76 240.52-23.04L240.52-23.04L240.52-21.20L246.68-21.20L246.68-18.04L240.60-18.04L240.60 0L236.76 0L236.76-18.04L233.16-18.04L233.16-21.20L236.76-21.20L236.76-23.08Q236.76-26.24 238.60-28.08Q240.44-29.92 243.76-29.92L243.76-29.92Q245.04-29.92 246.16-29.60Q247.28-29.28 248.08-28.68L248.08-28.68L246.92-25.76Q245.60-26.76 243.96-26.76L243.96-26.76Z M259.64-21.40Q264.04-21.40 266.38-19.24Q268.72-17.08 268.72-12.80L268.72-12.80L268.72 0L265.08 0L265.08-2.80Q264.12-1.32 262.34-0.54Q260.56 0.24 258.12 0.24L258.12 0.24Q254.56 0.24 252.42-1.48Q250.28-3.20 250.28-6L250.28-6Q250.28-8.80 252.32-10.50Q254.36-12.20 258.80-12.20L258.80-12.20L264.88-12.20L264.88-12.96Q264.88-15.44 263.44-16.76Q262-18.08 259.20-18.08L259.20-18.08Q257.32-18.08 255.52-17.46Q253.72-16.84 252.48-15.80L252.48-15.80L250.88-18.68Q252.52-20 254.80-20.70Q257.08-21.40 259.64-21.40L259.64-21.40ZM258.76-2.72Q260.96-2.72 262.56-3.70Q264.16-4.68 264.88-6.48L264.88-6.48L264.88-9.44L258.96-9.44Q254.08-9.44 254.08-6.16L254.08-6.16Q254.08-4.56 255.32-3.64Q256.56-2.72 258.76-2.72L258.76-2.72Z M277.84 0L277.84-21.20L281.68-21.20L281.68 0L277.84 0ZM279.76-25.28Q278.64-25.28 277.90-26Q277.16-26.72 277.16-27.76L277.16-27.76Q277.16-28.80 277.90-29.54Q278.64-30.28 279.76-30.28L279.76-30.28Q280.88-30.28 281.62-29.58Q282.36-28.88 282.36-27.84L282.36-27.84Q282.36-26.76 281.62-26.02Q280.88-25.28 279.76-25.28L279.76-25.28Z M301.72-4L302.92-1.24Q302.08-0.52 300.84-0.14Q299.60 0.24 298.28 0.24L298.28 0.24Q295.08 0.24 293.32-1.48Q291.56-3.20 291.56-6.40L291.56-6.40L291.56-18.04L287.96-18.04L287.96-21.20L291.56-21.20L291.56-25.84L295.40-25.84L295.40-21.20L301.48-21.20L301.48-18.04L295.40-18.04L295.40-6.56Q295.40-4.84 296.26-3.92Q297.12-3 298.72-3L298.72-3Q300.48-3 301.72-4L301.72-4Z M322.32 0L322.32-29.68L326.16-29.68L326.16 0L322.32 0Z M343.20-21.40Q347.60-21.40 349.94-19.24Q352.28-17.08 352.28-12.80L352.28-12.80L352.28 0L348.64 0L348.64-2.80Q347.68-1.32 345.90-0.54Q344.12 0.24 341.68 0.24L341.68 0.24Q338.12 0.24 335.98-1.48Q333.84-3.20 333.84-6L333.84-6Q333.84-8.80 335.88-10.50Q337.92-12.20 342.36-12.20L342.36-12.20L348.44-12.20L348.44-12.96Q348.44-15.44 347.00-16.76Q345.56-18.08 342.76-18.08L342.76-18.08Q340.88-18.08 339.08-17.46Q337.28-16.84 336.04-15.80L336.04-15.80L334.44-18.68Q336.08-20 338.36-20.70Q340.64-21.40 343.20-21.40L343.20-21.40ZM342.32-2.72Q344.52-2.72 346.12-3.70Q347.72-4.68 348.44-6.48L348.44-6.48L348.44-9.44L342.52-9.44Q337.64-9.44 337.64-6.16L337.64-6.16Q337.64-4.56 338.88-3.64Q340.12-2.72 342.32-2.72L342.32-2.72Z M390.32-29.68L394.16-29.68L394.16 0L390.48 0L390.48-3.36Q389.20-1.60 387.24-0.68Q385.28 0.24 382.92 0.24L382.92 0.24Q379.84 0.24 377.40-1.12Q374.96-2.48 373.58-4.94Q372.20-7.40 372.20-10.60L372.20-10.60Q372.20-13.80 373.58-16.24Q374.96-18.68 377.40-20.04Q379.84-21.40 382.92-21.40L382.92-21.40Q385.20-21.40 387.12-20.54Q389.04-19.68 390.32-18L390.32-18L390.32-29.68ZM383.24-3.12Q385.24-3.12 386.88-4.06Q388.52-5 389.44-6.70Q390.36-8.40 390.36-10.60L390.36-10.60Q390.36-12.80 389.44-14.50Q388.52-16.20 386.88-17.12Q385.24-18.04 383.24-18.04L383.24-18.04Q381.20-18.04 379.58-17.12Q377.96-16.20 377.02-14.50Q376.08-12.80 376.08-10.60L376.08-10.60Q376.08-8.40 377.02-6.70Q377.96-5 379.58-4.06Q381.20-3.12 383.24-3.12L383.24-3.12Z M403.44 0L403.44-21.20L407.28-21.20L407.28 0L403.44 0ZM405.36-25.28Q404.24-25.28 403.50-26Q402.76-26.72 402.76-27.76L402.76-27.76Q402.76-28.80 403.50-29.54Q404.24-30.28 405.36-30.28L405.36-30.28Q406.48-30.28 407.22-29.58Q407.96-28.88 407.96-27.84L407.96-27.84Q407.96-26.76 407.22-26.02Q406.48-25.28 405.36-25.28L405.36-25.28Z M424.36-26.76Q420.92-26.76 420.92-23.04L420.92-23.04L420.92-21.20L427.08-21.20L427.08-18.04L421.00-18.04L421.00 0L417.16 0L417.16-18.04L413.56-18.04L413.56-21.20L417.16-21.20L417.16-23.08Q417.16-26.24 419.00-28.08Q420.84-29.92 424.16-29.92L424.16-29.92Q425.44-29.92 426.56-29.60Q427.68-29.28 428.48-28.68L428.48-28.68L427.32-25.76Q426.00-26.76 424.36-26.76L424.36-26.76Z M440.48-26.76Q437.04-26.76 437.04-23.04L437.04-23.04L437.04-21.20L443.20-21.20L443.20-18.04L437.12-18.04L437.12 0L433.28 0L433.28-18.04L429.68-18.04L429.68-21.20L433.28-21.20L433.28-23.08Q433.28-26.24 435.12-28.08Q436.96-29.92 440.28-29.92L440.28-29.92Q441.56-29.92 442.68-29.60Q443.80-29.28 444.60-28.68L444.60-28.68L443.44-25.76Q442.12-26.76 440.48-26.76L440.48-26.76Z M467.68-10.48Q467.68-10.04 467.60-9.32L467.60-9.32L450.40-9.32Q450.76-6.52 452.86-4.82Q454.96-3.12 458.08-3.12L458.08-3.12Q461.88-3.12 464.20-5.68L464.20-5.68L466.32-3.20Q464.88-1.52 462.74-0.64Q460.60 0.24 457.96 0.24L457.96 0.24Q454.60 0.24 452.00-1.14Q449.40-2.52 447.98-5Q446.56-7.48 446.56-10.60L446.56-10.60Q446.56-13.68 447.94-16.16Q449.32-18.64 451.74-20.02Q454.16-21.40 457.20-21.40L457.20-21.40Q460.24-21.40 462.62-20.02Q465.00-18.64 466.34-16.16Q467.68-13.68 467.68-10.48L467.68-10.48ZM457.20-18.16Q454.44-18.16 452.58-16.48Q450.72-14.80 450.40-12.08L450.40-12.08L464.00-12.08Q463.68-14.76 461.82-16.46Q459.96-18.16 457.20-18.16L457.20-18.16ZM454.16-24.28L459.60-29.48L464.48-29.48L457.76-24.28L454.16-24.28Z M478.68-17.64Q479.68-19.48 481.64-20.44Q483.60-21.40 486.40-21.40L486.40-21.40L486.40-17.68Q486.08-17.72 485.52-17.72L485.52-17.72Q482.40-17.72 480.62-15.86Q478.84-14 478.84-10.56L478.84-10.56L478.84 0L475.00 0L475.00-21.20L478.68-21.20L478.68-17.64Z M512.08-10.48Q512.08-10.04 512.00-9.32L512.00-9.32L494.80-9.32Q495.16-6.52 497.26-4.82Q499.36-3.12 502.48-3.12L502.48-3.12Q506.28-3.12 508.60-5.68L508.60-5.68L510.72-3.20Q509.28-1.52 507.14-0.64Q505.00 0.24 502.36 0.24L502.36 0.24Q499.00 0.24 496.40-1.14Q493.80-2.52 492.38-5Q490.96-7.48 490.96-10.60L490.96-10.60Q490.96-13.68 492.34-16.16Q493.72-18.64 496.14-20.02Q498.56-21.40 501.60-21.40L501.60-21.40Q504.64-21.40 507.02-20.02Q509.40-18.64 510.74-16.16Q512.08-13.68 512.08-10.48L512.08-10.48ZM501.60-18.16Q498.84-18.16 496.98-16.48Q495.12-14.80 494.80-12.08L494.80-12.08L508.40-12.08Q508.08-14.76 506.22-16.46Q504.36-18.16 501.60-18.16L501.60-18.16Z M530.72-21.40Q534.76-21.40 537.14-19.06Q539.52-16.72 539.52-12.20L539.52-12.20L539.52 0L535.68 0L535.68-11.76Q535.68-14.84 534.20-16.40Q532.72-17.96 529.96-17.96L529.96-17.96Q526.84-17.96 525.04-16.14Q523.24-14.32 523.24-10.92L523.24-10.92L523.24 0L519.40 0L519.40-21.20L523.08-21.20L523.08-18Q524.24-19.64 526.22-20.52Q528.20-21.40 530.72-21.40L530.72-21.40Z M558.00 0.24Q554.76 0.24 552.22-1.16Q549.68-2.56 548.24-5.02Q546.80-7.48 546.80-10.60L546.80-10.60Q546.80-13.72 548.24-16.18Q549.68-18.64 552.22-20.02Q554.76-21.40 558.00-21.40L558.00-21.40Q560.88-21.40 563.14-20.24Q565.40-19.08 566.64-16.88L566.64-16.88L563.72-15Q562.72-16.52 561.24-17.28Q559.76-18.04 557.96-18.04L557.96-18.04Q555.88-18.04 554.22-17.12Q552.56-16.20 551.62-14.50Q550.68-12.80 550.68-10.60L550.68-10.60Q550.68-8.36 551.62-6.66Q552.56-4.96 554.22-4.04Q555.88-3.12 557.96-3.12L557.96-3.12Q559.76-3.12 561.24-3.88Q562.72-4.64 563.72-6.16L563.72-6.16L566.64-4.32Q565.40-2.12 563.14-0.94Q560.88 0.24 558.00 0.24L558.00 0.24Z M592.44-10.48Q592.44-10.04 592.36-9.32L592.36-9.32L575.16-9.32Q575.52-6.52 577.62-4.82Q579.72-3.12 582.84-3.12L582.84-3.12Q586.64-3.12 588.96-5.68L588.96-5.68L591.08-3.20Q589.64-1.52 587.50-0.64Q585.36 0.24 582.72 0.24L582.72 0.24Q579.36 0.24 576.76-1.14Q574.16-2.52 572.74-5Q571.32-7.48 571.32-10.60L571.32-10.60Q571.32-13.68 572.70-16.16Q574.08-18.64 576.50-20.02Q578.92-21.40 581.96-21.40L581.96-21.40Q585.00-21.40 587.38-20.02Q589.76-18.64 591.10-16.16Q592.44-13.68 592.44-10.48L592.44-10.48ZM581.96-18.16Q579.20-18.16 577.34-16.48Q575.48-14.80 575.16-12.08L575.16-12.08L588.76-12.08Q588.44-14.76 586.58-16.46Q584.72-18.16 581.96-18.16L581.96-18.16Z"/></g>
</svg>
</g><g opacity="1" transform="rotate(0 847.9197 648.2827)">
<svg width="367.9125" height="40" x="847.9197" y="648.2827" version="1.1" preserveAspectRatio="none" viewBox="3.32 -31.48 293.96000000000004 31.96">
  <g transform="matrix(1 0 0 1 0 0)" class="background"><path id="id-D6z1nYkh12" d="M34.88 0L28.80 0L28.76-16.80L20.52-2.96L17.60-2.96L9.40-16.44L9.40 0L3.32 0L3.32-28L8.68-28L19.16-10.60L29.48-28L34.80-28L34.88 0Z M51.32 0.32Q47.92 0.32 45.22-1.10Q42.52-2.52 41-5.04Q39.48-7.56 39.48-10.76L39.48-10.76Q39.48-13.96 41-16.48Q42.52-19 45.22-20.42Q47.92-21.84 51.32-21.84L51.32-21.84Q54.72-21.84 57.40-20.42Q60.08-19 61.60-16.48Q63.12-13.96 63.12-10.76L63.12-10.76Q63.12-7.56 61.60-5.04Q60.08-2.52 57.40-1.10Q54.72 0.32 51.32 0.32L51.32 0.32ZM51.32-4.80Q53.72-4.80 55.26-6.42Q56.80-8.04 56.80-10.76L56.80-10.76Q56.80-13.48 55.26-15.10Q53.72-16.72 51.32-16.72L51.32-16.72Q48.92-16.72 47.36-15.10Q45.80-13.48 45.80-10.76L45.80-10.76Q45.80-8.04 47.36-6.42Q48.92-4.80 51.32-4.80L51.32-4.80Z M80.36-21.84Q84.36-21.84 86.82-19.44Q89.28-17.04 89.28-12.32L89.28-12.32L89.28 0L83.04 0L83.04-11.36Q83.04-13.92 81.92-15.18Q80.80-16.44 78.68-16.44L78.68-16.44Q76.32-16.44 74.92-14.98Q73.52-13.52 73.52-10.64L73.52-10.64L73.52 0L67.28 0L67.28-21.52L73.24-21.52L73.24-19Q74.48-20.36 76.32-21.10Q78.16-21.84 80.36-21.84L80.36-21.84Z M116.28 0L113.80-6L100.80-6L98.32 0L91.68 0L104.16-28L110.56-28L123.08 0L116.28 0ZM102.88-10.92L111.76-10.92L107.32-21.64L102.88-10.92Z M139.80-21.52L145.80-21.52L136.72 0L130.28 0L121.24-21.52L127.68-21.52L133.64-6.88L139.80-21.52Z M148.36 0L148.36-21.52L154.60-21.52L154.60 0L148.36 0ZM151.48-24.52Q149.76-24.52 148.68-25.52Q147.60-26.52 147.60-28L147.60-28Q147.60-29.48 148.68-30.48Q149.76-31.48 151.48-31.48L151.48-31.48Q153.20-31.48 154.28-30.52Q155.36-29.56 155.36-28.12L155.36-28.12Q155.36-26.56 154.28-25.54Q153.20-24.52 151.48-24.52L151.48-24.52Z M167.64 0.32Q164.96 0.32 162.40-0.34Q159.84-1 158.32-2L158.32-2L160.40-6.48Q161.84-5.56 163.88-4.98Q165.92-4.40 167.88-4.40L167.88-4.40Q171.84-4.40 171.84-6.36L171.84-6.36Q171.84-7.28 170.76-7.68Q169.68-8.08 167.44-8.36L167.44-8.36Q164.80-8.76 163.08-9.28Q161.36-9.80 160.10-11.12Q158.84-12.44 158.84-14.88L158.84-14.88Q158.84-16.92 160.02-18.50Q161.20-20.08 163.46-20.96Q165.72-21.84 168.80-21.84L168.80-21.84Q171.08-21.84 173.34-21.34Q175.60-20.84 177.08-19.96L177.08-19.96L175-15.52Q172.16-17.12 168.80-17.12L168.80-17.12Q166.80-17.12 165.80-16.56Q164.80-16 164.80-15.12L164.80-15.12Q164.80-14.12 165.88-13.72Q166.96-13.32 169.32-12.96L169.32-12.96Q171.96-12.52 173.64-12.02Q175.32-11.52 176.56-10.20Q177.80-8.88 177.80-6.52L177.80-6.52Q177.80-4.52 176.60-2.96Q175.40-1.40 173.10-0.54Q170.80 0.32 167.64 0.32L167.64 0.32Z M191.28 0.48Q187.96 0.48 184.86-0.42Q181.76-1.32 179.88-2.76L179.88-2.76L182.08-7.64Q183.88-6.32 186.36-5.52Q188.84-4.72 191.32-4.72L191.32-4.72Q194.08-4.72 195.40-5.54Q196.72-6.36 196.72-7.72L196.72-7.72Q196.72-8.72 195.94-9.38Q195.16-10.04 193.94-10.44Q192.72-10.84 190.64-11.32L190.64-11.32Q187.44-12.08 185.40-12.84Q183.36-13.60 181.90-15.28Q180.44-16.96 180.44-19.76L180.44-19.76Q180.44-22.20 181.76-24.18Q183.08-26.16 185.74-27.32Q188.40-28.48 192.24-28.48L192.24-28.48Q194.92-28.48 197.48-27.84Q200.04-27.20 201.96-26L201.96-26L199.96-21.08Q196.08-23.28 192.20-23.28L192.20-23.28Q189.48-23.28 188.18-22.40Q186.88-21.52 186.88-20.08L186.88-20.08Q186.88-18.64 188.38-17.94Q189.88-17.24 192.96-16.56L192.96-16.56Q196.16-15.80 198.20-15.04Q200.24-14.28 201.70-12.64Q203.16-11 203.16-8.20L203.16-8.20Q203.16-5.80 201.82-3.82Q200.48-1.84 197.80-0.68Q195.12 0.48 191.28 0.48L191.28 0.48Z M215.84-21.84Q220.84-21.84 223.52-19.46Q226.20-17.08 226.20-12.28L226.20-12.28L226.20 0L220.36 0L220.36-2.68Q218.60 0.32 213.80 0.32L213.80 0.32Q211.32 0.32 209.50-0.52Q207.68-1.36 206.72-2.84Q205.76-4.32 205.76-6.20L205.76-6.20Q205.76-9.20 208.02-10.92Q210.28-12.64 215.00-12.64L215.00-12.64L219.96-12.64Q219.96-14.68 218.72-15.78Q217.48-16.88 215.00-16.88L215.00-16.88Q213.28-16.88 211.62-16.34Q209.96-15.80 208.80-14.88L208.80-14.88L206.56-19.24Q208.32-20.48 210.78-21.16Q213.24-21.84 215.84-21.84L215.84-21.84ZM215.36-3.88Q216.96-3.88 218.20-4.62Q219.44-5.36 219.96-6.80L219.96-6.80L219.96-9L215.68-9Q211.84-9 211.84-6.48L211.84-6.48Q211.84-5.28 212.78-4.58Q213.72-3.88 215.36-3.88L215.36-3.88Z M244.92-21.84Q248.92-21.84 251.38-19.44Q253.84-17.04 253.84-12.32L253.84-12.32L253.84 0L247.60 0L247.60-11.36Q247.60-13.92 246.48-15.18Q245.36-16.44 243.24-16.44L243.24-16.44Q240.88-16.44 239.48-14.98Q238.08-13.52 238.08-10.64L238.08-10.64L238.08 0L231.84 0L231.84-21.52L237.80-21.52L237.80-19Q239.04-20.36 240.88-21.10Q242.72-21.84 244.92-21.84L244.92-21.84Z M271.68-5.44L273.36-1.04Q272.44-0.36 271.10-0.02Q269.76 0.32 268.28 0.32L268.28 0.32Q264.44 0.32 262.34-1.64Q260.24-3.60 260.24-7.40L260.24-7.40L260.24-16.24L256.92-16.24L256.92-21.04L260.24-21.04L260.24-26.28L266.48-26.28L266.48-21.04L271.84-21.04L271.84-16.24L266.48-16.24L266.48-7.48Q266.48-6.12 267.18-5.38Q267.88-4.64 269.16-4.64L269.16-4.64Q270.64-4.64 271.68-5.44L271.68-5.44Z M297.28-10.68Q297.28-10.56 297.16-9L297.16-9L280.88-9Q281.32-7 282.96-5.84Q284.60-4.68 287.04-4.68L287.04-4.68Q288.72-4.68 290.02-5.18Q291.32-5.68 292.44-6.76L292.44-6.76L295.76-3.16Q292.72 0.32 286.88 0.32L286.88 0.32Q283.24 0.32 280.44-1.10Q277.64-2.52 276.12-5.04Q274.60-7.56 274.60-10.76L274.60-10.76Q274.60-13.92 276.10-16.46Q277.60-19 280.22-20.42Q282.84-21.84 286.08-21.84L286.08-21.84Q289.24-21.84 291.80-20.48Q294.36-19.12 295.82-16.58Q297.28-14.04 297.28-10.68L297.28-10.68ZM286.12-17.12Q284-17.12 282.56-15.92Q281.12-14.72 280.80-12.64L280.80-12.64L291.40-12.64Q291.08-14.68 289.64-15.90Q288.20-17.12 286.12-17.12L286.12-17.12ZM282.32-24.28L287.72-30.04L294.44-30.04L287.20-24.28L282.32-24.28Z"/></g>
</svg>
</g><g opacity="1" transform="rotate(0 721.9199 618.2827)">
<svg width="99.9998" height="100" x="721.9199" y="618.2827" version="1.1" preserveAspectRatio="none" viewBox="0 0 99.9998 100">
  <defs><rect x="1.9999959999999999" y="1.9999959999999999" width="95.99980799999999" height="96.000008" rx="0px" ry="0px" id="id-tBXipXk0b1740680108192"></rect></defs><use class="background icon1-str" style="stroke-width:3.9999919999999998;" xlink:href="#id-tBXipXk0b1740680108192"></use>
</svg>
</g><g opacity="1" transform="rotate(0 741.9199 638.2828)">
<svg width="59.9998" height="59.9998" x="741.9199" y="638.2828" version="1.1" preserveAspectRatio="none" viewBox="51 51 98 98">
  <g transform="matrix(1 0 0 1 0 0)"><g><path d="M100 149c-27.018 0-49-21.982-49-49s21.982-49 49-49 49 21.982 49 49-21.982 49-49 49zm0-91.288c-23.317 0-42.288 18.97-42.288 42.288s18.97 42.288 42.288 42.288 42.288-18.97 42.288-42.288S123.317 57.712 100 57.712z" data-color="1" class="icon1"></path><path d="M106.353 95.342H93.647a2.014 2.014 0 0 0-2.014 2.014v30.833c0 1.112.902 2.014 2.014 2.014h12.706a2.014 2.014 0 0 0 2.014-2.014V97.356a2.014 2.014 0 0 0-2.014-2.014z" data-color="2" class="icon2"></path><path d="M100 89.148c5.387 0 9.77-4.383 9.77-9.77s-4.383-9.77-9.77-9.77-9.77 4.383-9.77 9.77c0 5.388 4.383 9.77 9.77 9.77z" data-color="2" class="icon2"></path></g></g>
</svg>
</g></svg></svg>